<?xml version="1.0" encoding="UTF-8"?>
<svg xmlns="http://www.w3.org/2000/svg" viewBox="0 0 1240 1754"><view id="c0" viewBox="26 190 585 492"/><view id="c1" viewBox="629 190 585 492"/><view id="c2" viewBox="26 700 585 492"/><view id="c3" viewBox="629 700 585 492"/><view id="c4" viewBox="26 1210 585 492"/><view id="c5" viewBox="629 1210 585 492"/><rect width="1240" height="1754" fill="#FFFDF7"/><rect x="0" y="0" width="1240" height="138" fill="#8E44AD"/><rect x="0" y="132" width="1240" height="8" fill="#F1C40F"/><text x="28" y="62" font-family="DejaVu Sans, Verdana, sans-serif" font-size="46" font-weight="bold" fill="#FFFFFF">SHAZMILA</text><text x="28" y="92" font-family="DejaVu Sans, Verdana, sans-serif" font-size="20" fill="#EBD8F3">Une planche par semaine — du 1 au 7 décembre</text><rect x="978" y="26" width="236" height="54" rx="27" fill="#FFFFFF"/><text x="1096" y="61" text-anchor="middle" font-family="DejaVu Sans, Verdana, sans-serif" font-size="25" font-weight="bold" fill="#8E44AD">Semaine 12/52</text><rect x="978" y="90" width="236" height="34" rx="17" fill="#2980B9"/><text x="1096" y="113" text-anchor="middle" font-family="DejaVu Sans, Verdana, sans-serif" font-size="17" font-weight="bold" fill="#FFFFFF">Éducatif</text><text x="28" y="120" font-family="DejaVu Sans, Verdana, sans-serif" font-size="34" font-weight="bold" fill="#FFF8DC">L'écran n'est pas mon maître</text><text x="28" y="170" font-family="DejaVu Sans, Verdana, sans-serif" font-size="21" font-style="italic" fill="#6B4226">Maîtriser le temps d'écran.</text><clipPath id="clip0"><rect x="26.0" y="190.0" width="585.0" height="492.0" rx="14"/></clipPath><g clip-path="url(#clip0)"><rect x="26.0" y="190.0" width="585.0" height="492.0" fill="#FDEBD0"/><rect x="26.0" y="544.24" width="585.0" height="137.76000000000002" fill="#C89B6A"/><rect x="461.0" y="224.0" width="104" height="86" rx="6" fill="#BEE3F5" stroke="#8D6E3F" stroke-width="6"/><path d="M 513.0,224.0 v86 M 461.0,267.0 h104" stroke="#8D6E3F" stroke-width="5"/><g transform="translate(178.1,514.0) scale(1.0)"><rect x="-9" y="30" width="18" height="14" fill="#7A4A21"/><path d="M -34,32 Q 0,24 34,32 L 40,120 L -40,120 Z" fill="#27AE60"/><path d="M -10,34 L 0,46 L 10,34 L 0,30 Z" fill="#FDEBD0"/><path d="M 26,44 Q 60,26 70,-14" stroke="#7A4A21" stroke-width="13" fill="none" stroke-linecap="round"/><circle cx="72" cy="-22" r="9" fill="#7A4A21"/><path d="M -26,46 Q -44,70 -40,96" stroke="#7A4A21" stroke-width="13" fill="none" stroke-linecap="round"/><circle cx="0" cy="0" r="38" fill="#7A4A21"/><path d="M -39,-4 A 39 39 0 0 1 39,-4 L 39,-14 A 40 40 0 0 0 -39,-14 Z" fill="#2C1608"/><path d="M -38,-8 A 38 38 0 0 1 38,-8 L 27,-26 A 33 33 0 0 0 -27,-26 Z" fill="#2C1608"/><circle cx="-24" cy="-32" r="11" fill="#2C1608"/><circle cx="0" cy="-39" r="12" fill="#2C1608"/><circle cx="24" cy="-32" r="11" fill="#2C1608"/><circle cx="2" cy="-6" r="4.2" fill="#1B1B1B"/><circle cx="24" cy="-6" r="4.2" fill="#1B1B1B"/><path d="M -3,20 Q 8,10 19,20" stroke="#1B1B1B" stroke-width="3" fill="none" stroke-linecap="round"/><path d="M -4,-17 L 8,-13" stroke="#1B1B1B" stroke-width="3" stroke-linecap="round"/><path d="M 30,-17 L 18,-13" stroke="#1B1B1B" stroke-width="3" stroke-linecap="round"/><rect x="-52" y="128" width="104" height="26" rx="13" fill="#FFFFFF" stroke="#27AE60" stroke-width="2"/><text x="0" y="146" text-anchor="middle" font-family="DejaVu Sans, Verdana, sans-serif" font-size="17" font-weight="bold" fill="#27AE60">Mabéa</text></g><g transform="translate(458.9,514.0) scale(1.0)"><rect x="-9" y="30" width="18" height="14" fill="#8D5524"/><path d="M -30,32 Q 0,24 30,32 L 48,120 L -48,120 Z" fill="#8E44AD"/><path d="M -30,52 L 30,52" stroke="#F1C40F" stroke-width="5"/><path d="M 26,46 Q 44,70 40,96 " stroke="#8D5524" stroke-width="13" fill="none" stroke-linecap="round"/><path d="M -26,46 Q -44,70 -40,96" stroke="#8D5524" stroke-width="13" fill="none" stroke-linecap="round"/><circle cx="0" cy="0" r="38" fill="#8D5524"/><path d="M -40,-6 A 40 40 0 0 1 40,-6 L 40,-16 A 41 41 0 0 0 -40,-16 Z" fill="#1B1B1B"/><path d="M -39,-10 A 39 39 0 0 1 39,-10 L 30,-24 A 34 34 0 0 0 -30,-24 Z" fill="#1B1B1B"/><circle cx="-30" cy="-40" r="16" fill="#1B1B1B"/><circle cx="30" cy="-40" r="16" fill="#1B1B1B"/><circle cx="-30" cy="-27" r="4.5" fill="#F1C40F"/><circle cx="30" cy="-27" r="4.5" fill="#F1C40F"/><circle cx="-24" cy="-6" r="4.2" fill="#1B1B1B"/><circle cx="-2" cy="-6" r="4.2" fill="#1B1B1B"/><path d="M -20,10 Q -8,22 4,10" stroke="#1B1B1B" stroke-width="3.5" fill="none" stroke-linecap="round"/><rect x="-52" y="128" width="104" height="26" rx="13" fill="#FFFFFF" stroke="#8E44AD" stroke-width="2"/><text x="0" y="146" text-anchor="middle" font-family="DejaVu Sans, Verdana, sans-serif" font-size="17" font-weight="bold" fill="#8E44AD">Shazmila</text></g><path d="M 192.1,282.0 L 208.1,470.0 L 224.1,282.0 Z" fill="#FFFFFF" stroke="#26262B" stroke-width="3"/><rect x="44.0" y="204.0" width="549.0" height="80" rx="16" fill="#FFFFFF" stroke="#26262B" stroke-width="3"/><path d="M 195.1,281.0 L 221.1,281.0 Z" stroke="#FFFFFF" stroke-width="5"/><text x="318.5" y="230.0" text-anchor="middle" font-family="DejaVu Sans, Verdana, sans-serif" font-size="21" fill="#1B1B1B">J'ai passé tout le week-end sur le téléphone</text><text x="318.5" y="259.0" text-anchor="middle" font-family="DejaVu Sans, Verdana, sans-serif" font-size="21" fill="#1B1B1B">de mon frère…</text></g><rect x="26.0" y="190.0" width="585.0" height="492.0" rx="14" fill="none" stroke="#26262B" stroke-width="4"/><clipPath id="clip1"><rect x="629.0" y="190.0" width="585.0" height="492.0" rx="14"/></clipPath><g clip-path="url(#clip1)"><rect x="629.0" y="190.0" width="585.0" height="492.0" fill="#FDEBD0"/><rect x="629.0" y="544.24" width="585.0" height="137.76000000000002" fill="#C89B6A"/><rect x="1064.0" y="224.0" width="104" height="86" rx="6" fill="#BEE3F5" stroke="#8D6E3F" stroke-width="6"/><path d="M 1116.0,224.0 v86 M 1064.0,267.0 h104" stroke="#8D6E3F" stroke-width="5"/><g transform="translate(781.1,514.0) scale(1.0)"><rect x="-9" y="30" width="18" height="14" fill="#7A4A21"/><path d="M -34,32 Q 0,24 34,32 L 40,120 L -40,120 Z" fill="#27AE60"/><path d="M -10,34 L 0,46 L 10,34 L 0,30 Z" fill="#FDEBD0"/><path d="M 26,46 Q 44,70 40,96 " stroke="#7A4A21" stroke-width="13" fill="none" stroke-linecap="round"/><path d="M -26,46 Q -44,70 -40,96" stroke="#7A4A21" stroke-width="13" fill="none" stroke-linecap="round"/><circle cx="0" cy="0" r="38" fill="#7A4A21"/><path d="M -39,-4 A 39 39 0 0 1 39,-4 L 39,-14 A 40 40 0 0 0 -39,-14 Z" fill="#2C1608"/><path d="M -38,-8 A 38 38 0 0 1 38,-8 L 27,-26 A 33 33 0 0 0 -27,-26 Z" fill="#2C1608"/><circle cx="-24" cy="-32" r="11" fill="#2C1608"/><circle cx="0" cy="-39" r="12" fill="#2C1608"/><circle cx="24" cy="-32" r="11" fill="#2C1608"/><circle cx="2" cy="-6" r="4.2" fill="#1B1B1B"/><circle cx="24" cy="-6" r="4.2" fill="#1B1B1B"/><path d="M -4,10 Q 8,22 20,10" stroke="#1B1B1B" stroke-width="3.5" fill="none" stroke-linecap="round"/></g><g transform="translate(1061.9,514.0) scale(1.0)"><rect x="-9" y="30" width="18" height="14" fill="#8D5524"/><path d="M -30,32 Q 0,24 30,32 L 48,120 L -48,120 Z" fill="#8E44AD"/><path d="M -30,52 L 30,52" stroke="#F1C40F" stroke-width="5"/><path d="M -26,44 Q -60,26 -70,-14" stroke="#8D5524" stroke-width="13" fill="none" stroke-linecap="round"/><circle cx="-72" cy="-22" r="9" fill="#8D5524"/><path d="M 26,46 Q 44,70 40,96" stroke="#8D5524" stroke-width="13" fill="none" stroke-linecap="round"/><circle cx="0" cy="0" r="38" fill="#8D5524"/><path d="M -40,-6 A 40 40 0 0 1 40,-6 L 40,-16 A 41 41 0 0 0 -40,-16 Z" fill="#1B1B1B"/><path d="M -39,-10 A 39 39 0 0 1 39,-10 L 30,-24 A 34 34 0 0 0 -30,-24 Z" fill="#1B1B1B"/><circle cx="-30" cy="-40" r="16" fill="#1B1B1B"/><circle cx="30" cy="-40" r="16" fill="#1B1B1B"/><circle cx="-30" cy="-27" r="4.5" fill="#F1C40F"/><circle cx="30" cy="-27" r="4.5" fill="#F1C40F"/><circle cx="-24" cy="-6" r="4.2" fill="#1B1B1B"/><circle cx="-2" cy="-6" r="4.2" fill="#1B1B1B"/><path d="M -20,10 Q -8,22 4,10" stroke="#1B1B1B" stroke-width="3.5" fill="none" stroke-linecap="round"/></g><path d="M 1015.9000000000001,253.0 L 1031.9,470.0 L 1047.9,253.0 Z" fill="#FFFFFF" stroke="#26262B" stroke-width="3"/><rect x="647.0" y="204.0" width="549.0" height="51" rx="16" fill="#FFFFFF" stroke="#26262B" stroke-width="3"/><path d="M 1018.9000000000001,252.0 L 1044.9,252.0 Z" stroke="#FFFFFF" stroke-width="5"/><text x="921.5" y="230.0" text-anchor="middle" font-family="DejaVu Sans, Verdana, sans-serif" font-size="21" fill="#1B1B1B">Et le week-end t'a semblé long ou court ?</text></g><rect x="629.0" y="190.0" width="585.0" height="492.0" rx="14" fill="none" stroke="#26262B" stroke-width="4"/><clipPath id="clip2"><rect x="26.0" y="700.0" width="585.0" height="492.0" rx="14"/></clipPath><g clip-path="url(#clip2)"><rect x="26.0" y="700.0" width="585.0" height="492.0" fill="#FDEBD0"/><rect x="26.0" y="1054.24" width="585.0" height="137.76000000000002" fill="#C89B6A"/><rect x="461.0" y="734.0" width="104" height="86" rx="6" fill="#BEE3F5" stroke="#8D6E3F" stroke-width="6"/><path d="M 513.0,734.0 v86 M 461.0,777.0 h104" stroke="#8D6E3F" stroke-width="5"/><g transform="translate(178.1,1024.0) scale(1.0)"><rect x="-9" y="30" width="18" height="14" fill="#7A4A21"/><path d="M -34,32 Q 0,24 34,32 L 40,120 L -40,120 Z" fill="#27AE60"/><path d="M -10,34 L 0,46 L 10,34 L 0,30 Z" fill="#FDEBD0"/><path d="M 26,44 Q 60,26 70,-14" stroke="#7A4A21" stroke-width="13" fill="none" stroke-linecap="round"/><circle cx="72" cy="-22" r="9" fill="#7A4A21"/><path d="M -26,46 Q -44,70 -40,96" stroke="#7A4A21" stroke-width="13" fill="none" stroke-linecap="round"/><circle cx="0" cy="0" r="38" fill="#7A4A21"/><path d="M -39,-4 A 39 39 0 0 1 39,-4 L 39,-14 A 40 40 0 0 0 -39,-14 Z" fill="#2C1608"/><path d="M -38,-8 A 38 38 0 0 1 38,-8 L 27,-26 A 33 33 0 0 0 -27,-26 Z" fill="#2C1608"/><circle cx="-24" cy="-32" r="11" fill="#2C1608"/><circle cx="0" cy="-39" r="12" fill="#2C1608"/><circle cx="24" cy="-32" r="11" fill="#2C1608"/><circle cx="2" cy="-6" r="4.2" fill="#1B1B1B"/><circle cx="24" cy="-6" r="4.2" fill="#1B1B1B"/><path d="M -4,10 Q 8,22 20,10" stroke="#1B1B1B" stroke-width="3.5" fill="none" stroke-linecap="round"/></g><g transform="translate(458.9,1024.0) scale(1.0)"><rect x="-9" y="30" width="18" height="14" fill="#8D5524"/><path d="M -30,32 Q 0,24 30,32 L 48,120 L -48,120 Z" fill="#8E44AD"/><path d="M -30,52 L 30,52" stroke="#F1C40F" stroke-width="5"/><path d="M 26,46 Q 44,70 40,96 " stroke="#8D5524" stroke-width="13" fill="none" stroke-linecap="round"/><path d="M -26,46 Q -44,70 -40,96" stroke="#8D5524" stroke-width="13" fill="none" stroke-linecap="round"/><circle cx="0" cy="0" r="38" fill="#8D5524"/><path d="M -40,-6 A 40 40 0 0 1 40,-6 L 40,-16 A 41 41 0 0 0 -40,-16 Z" fill="#1B1B1B"/><path d="M -39,-10 A 39 39 0 0 1 39,-10 L 30,-24 A 34 34 0 0 0 -30,-24 Z" fill="#1B1B1B"/><circle cx="-30" cy="-40" r="16" fill="#1B1B1B"/><circle cx="30" cy="-40" r="16" fill="#1B1B1B"/><circle cx="-30" cy="-27" r="4.5" fill="#F1C40F"/><circle cx="30" cy="-27" r="4.5" fill="#F1C40F"/><circle cx="-24" cy="-6" r="4.2" fill="#1B1B1B"/><circle cx="-2" cy="-6" r="4.2" fill="#1B1B1B"/><path d="M -20,10 Q -8,22 4,10" stroke="#1B1B1B" stroke-width="3.5" fill="none" stroke-linecap="round"/></g><path d="M 192.1,792.0 L 208.1,980.0 L 224.1,792.0 Z" fill="#FFFFFF" stroke="#26262B" stroke-width="3"/><rect x="44.0" y="714.0" width="549.0" height="80" rx="16" fill="#FFFFFF" stroke="#26262B" stroke-width="3"/><path d="M 195.1,791.0 L 221.1,791.0 Z" stroke="#FFFFFF" stroke-width="5"/><text x="318.5" y="740.0" text-anchor="middle" font-family="DejaVu Sans, Verdana, sans-serif" font-size="21" fill="#1B1B1B">Court ! Trop court… et je n'ai rien fait</text><text x="318.5" y="769.0" text-anchor="middle" font-family="DejaVu Sans, Verdana, sans-serif" font-size="21" fill="#1B1B1B">d'autre.</text></g><rect x="26.0" y="700.0" width="585.0" height="492.0" rx="14" fill="none" stroke="#26262B" stroke-width="4"/><clipPath id="clip3"><rect x="629.0" y="700.0" width="585.0" height="492.0" rx="14"/></clipPath><g clip-path="url(#clip3)"><rect x="629.0" y="700.0" width="585.0" height="492.0" fill="#FDEBD0"/><rect x="629.0" y="1054.24" width="585.0" height="137.76000000000002" fill="#C89B6A"/><rect x="1064.0" y="734.0" width="104" height="86" rx="6" fill="#BEE3F5" stroke="#8D6E3F" stroke-width="6"/><path d="M 1116.0,734.0 v86 M 1064.0,777.0 h104" stroke="#8D6E3F" stroke-width="5"/><g transform="translate(781.1,1024.0) scale(1.0)"><rect x="-9" y="30" width="18" height="14" fill="#7A4A21"/><path d="M -34,32 Q 0,24 34,32 L 40,120 L -40,120 Z" fill="#27AE60"/><path d="M -10,34 L 0,46 L 10,34 L 0,30 Z" fill="#FDEBD0"/><path d="M 26,46 Q 44,70 40,96 " stroke="#7A4A21" stroke-width="13" fill="none" stroke-linecap="round"/><path d="M -26,46 Q -44,70 -40,96" stroke="#7A4A21" stroke-width="13" fill="none" stroke-linecap="round"/><circle cx="0" cy="0" r="38" fill="#7A4A21"/><path d="M -39,-4 A 39 39 0 0 1 39,-4 L 39,-14 A 40 40 0 0 0 -39,-14 Z" fill="#2C1608"/><path d="M -38,-8 A 38 38 0 0 1 38,-8 L 27,-26 A 33 33 0 0 0 -27,-26 Z" fill="#2C1608"/><circle cx="-24" cy="-32" r="11" fill="#2C1608"/><circle cx="0" cy="-39" r="12" fill="#2C1608"/><circle cx="24" cy="-32" r="11" fill="#2C1608"/><circle cx="2" cy="-6" r="4.2" fill="#1B1B1B"/><circle cx="24" cy="-6" r="4.2" fill="#1B1B1B"/><path d="M -4,10 Q 8,22 20,10" stroke="#1B1B1B" stroke-width="3.5" fill="none" stroke-linecap="round"/></g><g transform="translate(1061.9,1024.0) scale(1.0)"><rect x="-9" y="30" width="18" height="14" fill="#8D5524"/><path d="M -30,32 Q 0,24 30,32 L 48,120 L -48,120 Z" fill="#8E44AD"/><path d="M -30,52 L 30,52" stroke="#F1C40F" stroke-width="5"/><path d="M -26,44 Q -60,26 -70,-14" stroke="#8D5524" stroke-width="13" fill="none" stroke-linecap="round"/><circle cx="-72" cy="-22" r="9" fill="#8D5524"/><path d="M 26,46 Q 44,70 40,96" stroke="#8D5524" stroke-width="13" fill="none" stroke-linecap="round"/><circle cx="0" cy="0" r="38" fill="#8D5524"/><path d="M -40,-6 A 40 40 0 0 1 40,-6 L 40,-16 A 41 41 0 0 0 -40,-16 Z" fill="#1B1B1B"/><path d="M -39,-10 A 39 39 0 0 1 39,-10 L 30,-24 A 34 34 0 0 0 -30,-24 Z" fill="#1B1B1B"/><circle cx="-30" cy="-40" r="16" fill="#1B1B1B"/><circle cx="30" cy="-40" r="16" fill="#1B1B1B"/><circle cx="-30" cy="-27" r="4.5" fill="#F1C40F"/><circle cx="30" cy="-27" r="4.5" fill="#F1C40F"/><circle cx="-24" cy="-6" r="4.2" fill="#1B1B1B"/><circle cx="-2" cy="-6" r="4.2" fill="#1B1B1B"/><path d="M -20,10 Q -8,22 4,10" stroke="#1B1B1B" stroke-width="3.5" fill="none" stroke-linecap="round"/></g><path d="M 1015.9000000000001,792.0 L 1031.9,980.0 L 1047.9,792.0 Z" fill="#FFFFFF" stroke="#26262B" stroke-width="3"/><rect x="647.0" y="714.0" width="549.0" height="80" rx="16" fill="#FFFFFF" stroke="#26262B" stroke-width="3"/><path d="M 1018.9000000000001,791.0 L 1044.9,791.0 Z" stroke="#FFFFFF" stroke-width="5"/><text x="921.5" y="740.0" text-anchor="middle" font-family="DejaVu Sans, Verdana, sans-serif" font-size="21" fill="#1B1B1B">L'écran est un bon serviteur, mais un mauvais</text><text x="921.5" y="769.0" text-anchor="middle" font-family="DejaVu Sans, Verdana, sans-serif" font-size="21" fill="#1B1B1B">maître.</text></g><rect x="629.0" y="700.0" width="585.0" height="492.0" rx="14" fill="none" stroke="#26262B" stroke-width="4"/><clipPath id="clip4"><rect x="26.0" y="1210.0" width="585.0" height="492.0" rx="14"/></clipPath><g clip-path="url(#clip4)"><rect x="26.0" y="1210.0" width="585.0" height="492.0" fill="#FDEBD0"/><rect x="26.0" y="1564.24" width="585.0" height="137.76000000000002" fill="#C89B6A"/><rect x="461.0" y="1244.0" width="104" height="86" rx="6" fill="#BEE3F5" stroke="#8D6E3F" stroke-width="6"/><path d="M 513.0,1244.0 v86 M 461.0,1287.0 h104" stroke="#8D6E3F" stroke-width="5"/><g transform="translate(178.1,1534.0) scale(1.0)"><rect x="-9" y="30" width="18" height="14" fill="#7A4A21"/><path d="M -34,32 Q 0,24 34,32 L 40,120 L -40,120 Z" fill="#27AE60"/><path d="M -10,34 L 0,46 L 10,34 L 0,30 Z" fill="#FDEBD0"/><path d="M 26,44 Q 60,26 70,-14" stroke="#7A4A21" stroke-width="13" fill="none" stroke-linecap="round"/><circle cx="72" cy="-22" r="9" fill="#7A4A21"/><path d="M -26,46 Q -44,70 -40,96" stroke="#7A4A21" stroke-width="13" fill="none" stroke-linecap="round"/><circle cx="0" cy="0" r="38" fill="#7A4A21"/><path d="M -39,-4 A 39 39 0 0 1 39,-4 L 39,-14 A 40 40 0 0 0 -39,-14 Z" fill="#2C1608"/><path d="M -38,-8 A 38 38 0 0 1 38,-8 L 27,-26 A 33 33 0 0 0 -27,-26 Z" fill="#2C1608"/><circle cx="-24" cy="-32" r="11" fill="#2C1608"/><circle cx="0" cy="-39" r="12" fill="#2C1608"/><circle cx="24" cy="-32" r="11" fill="#2C1608"/><circle cx="2" cy="-6" r="4.2" fill="#1B1B1B"/><circle cx="24" cy="-6" r="4.2" fill="#1B1B1B"/><path d="M -4,10 Q 8,22 20,10" stroke="#1B1B1B" stroke-width="3.5" fill="none" stroke-linecap="round"/></g><g transform="translate(458.9,1534.0) scale(1.0)"><rect x="-9" y="30" width="18" height="14" fill="#8D5524"/><path d="M -30,32 Q 0,24 30,32 L 48,120 L -48,120 Z" fill="#8E44AD"/><path d="M -30,52 L 30,52" stroke="#F1C40F" stroke-width="5"/><path d="M 26,46 Q 44,70 40,96 " stroke="#8D5524" stroke-width="13" fill="none" stroke-linecap="round"/><path d="M -26,46 Q -44,70 -40,96" stroke="#8D5524" stroke-width="13" fill="none" stroke-linecap="round"/><circle cx="0" cy="0" r="38" fill="#8D5524"/><path d="M -40,-6 A 40 40 0 0 1 40,-6 L 40,-16 A 41 41 0 0 0 -40,-16 Z" fill="#1B1B1B"/><path d="M -39,-10 A 39 39 0 0 1 39,-10 L 30,-24 A 34 34 0 0 0 -30,-24 Z" fill="#1B1B1B"/><circle cx="-30" cy="-40" r="16" fill="#1B1B1B"/><circle cx="30" cy="-40" r="16" fill="#1B1B1B"/><circle cx="-30" cy="-27" r="4.5" fill="#F1C40F"/><circle cx="30" cy="-27" r="4.5" fill="#F1C40F"/><circle cx="-24" cy="-6" r="4.2" fill="#1B1B1B"/><circle cx="-2" cy="-6" r="4.2" fill="#1B1B1B"/><path d="M -20,10 Q -8,22 4,10" stroke="#1B1B1B" stroke-width="3.5" fill="none" stroke-linecap="round"/></g><path d="M 192.1,1273.0 L 208.1,1490.0 L 224.1,1273.0 Z" fill="#FFFFFF" stroke="#26262B" stroke-width="3"/><rect x="44.0" y="1224.0" width="549.0" height="51" rx="16" fill="#FFFFFF" stroke="#26262B" stroke-width="3"/><path d="M 195.1,1272.0 L 221.1,1272.0 Z" stroke="#FFFFFF" stroke-width="5"/><text x="318.5" y="1250.0" text-anchor="middle" font-family="DejaVu Sans, Verdana, sans-serif" font-size="21" fill="#1B1B1B">Comment le remettre à sa place ?</text></g><rect x="26.0" y="1210.0" width="585.0" height="492.0" rx="14" fill="none" stroke="#26262B" stroke-width="4"/><clipPath id="clip5"><rect x="629.0" y="1210.0" width="585.0" height="492.0" rx="14"/></clipPath><g clip-path="url(#clip5)"><rect x="629.0" y="1210.0" width="585.0" height="492.0" fill="#FDEBD0"/><rect x="629.0" y="1564.24" width="585.0" height="137.76000000000002" fill="#C89B6A"/><rect x="1064.0" y="1244.0" width="104" height="86" rx="6" fill="#BEE3F5" stroke="#8D6E3F" stroke-width="6"/><path d="M 1116.0,1244.0 v86 M 1064.0,1287.0 h104" stroke="#8D6E3F" stroke-width="5"/><g transform="translate(781.1,1534.0) scale(1.0)"><rect x="-9" y="30" width="18" height="14" fill="#7A4A21"/><path d="M -34,32 Q 0,24 34,32 L 40,120 L -40,120 Z" fill="#27AE60"/><path d="M -10,34 L 0,46 L 10,34 L 0,30 Z" fill="#FDEBD0"/><path d="M 26,46 Q 44,70 40,96 " stroke="#7A4A21" stroke-width="13" fill="none" stroke-linecap="round"/><path d="M -26,46 Q -44,70 -40,96" stroke="#7A4A21" stroke-width="13" fill="none" stroke-linecap="round"/><circle cx="0" cy="0" r="38" fill="#7A4A21"/><path d="M -39,-4 A 39 39 0 0 1 39,-4 L 39,-14 A 40 40 0 0 0 -39,-14 Z" fill="#2C1608"/><path d="M -38,-8 A 38 38 0 0 1 38,-8 L 27,-26 A 33 33 0 0 0 -27,-26 Z" fill="#2C1608"/><circle cx="-24" cy="-32" r="11" fill="#2C1608"/><circle cx="0" cy="-39" r="12" fill="#2C1608"/><circle cx="24" cy="-32" r="11" fill="#2C1608"/><circle cx="2" cy="-6" r="4.2" fill="#1B1B1B"/><circle cx="24" cy="-6" r="4.2" fill="#1B1B1B"/><path d="M -4,10 Q 8,22 20,10" stroke="#1B1B1B" stroke-width="3.5" fill="none" stroke-linecap="round"/></g><g transform="translate(1061.9,1534.0) scale(1.0)"><rect x="-9" y="30" width="18" height="14" fill="#8D5524"/><path d="M -30,32 Q 0,24 30,32 L 48,120 L -48,120 Z" fill="#8E44AD"/><path d="M -30,52 L 30,52" stroke="#F1C40F" stroke-width="5"/><path d="M -26,44 Q -60,26 -70,-14" stroke="#8D5524" stroke-width="13" fill="none" stroke-linecap="round"/><circle cx="-72" cy="-22" r="9" fill="#8D5524"/><path d="M 26,46 Q 44,70 40,96" stroke="#8D5524" stroke-width="13" fill="none" stroke-linecap="round"/><circle cx="0" cy="0" r="38" fill="#8D5524"/><path d="M -40,-6 A 40 40 0 0 1 40,-6 L 40,-16 A 41 41 0 0 0 -40,-16 Z" fill="#1B1B1B"/><path d="M -39,-10 A 39 39 0 0 1 39,-10 L 30,-24 A 34 34 0 0 0 -30,-24 Z" fill="#1B1B1B"/><circle cx="-30" cy="-40" r="16" fill="#1B1B1B"/><circle cx="30" cy="-40" r="16" fill="#1B1B1B"/><circle cx="-30" cy="-27" r="4.5" fill="#F1C40F"/><circle cx="30" cy="-27" r="4.5" fill="#F1C40F"/><circle cx="-24" cy="-6" r="4.2" fill="#1B1B1B"/><circle cx="-2" cy="-6" r="4.2" fill="#1B1B1B"/><path d="M -20,10 Q -8,22 4,10" stroke="#1B1B1B" stroke-width="3.5" fill="none" stroke-linecap="round"/></g><path d="M 1015.9000000000001,1302.0 L 1031.9,1490.0 L 1047.9,1302.0 Z" fill="#FFFFFF" stroke="#26262B" stroke-width="3"/><rect x="647.0" y="1224.0" width="549.0" height="80" rx="16" fill="#FFFFFF" stroke="#26262B" stroke-width="3"/><path d="M 1018.9000000000001,1301.0 L 1044.9,1301.0 Z" stroke="#FFFFFF" stroke-width="5"/><text x="921.5" y="1250.0" text-anchor="middle" font-family="DejaVu Sans, Verdana, sans-serif" font-size="21" fill="#1B1B1B">Décide AVANT : « 30 minutes, pas plus. » C'est</text><text x="921.5" y="1279.0" text-anchor="middle" font-family="DejaVu Sans, Verdana, sans-serif" font-size="21" fill="#1B1B1B">toi le chef, pas lui !</text></g><rect x="629.0" y="1210.0" width="585.0" height="492.0" rx="14" fill="none" stroke="#26262B" stroke-width="4"/><text x="620.0" y="1738" text-anchor="middle" font-family="DejaVu Sans, Verdana, sans-serif" font-size="17" fill="#8E44AD">Shazmila et ses amis — Planche 12/52 • Éducatif</text></svg>