<?xml version="1.0" encoding="UTF-8"?>
<svg xmlns="http://www.w3.org/2000/svg" viewBox="0 0 1240 1754"><view id="c0" viewBox="26 190 585 492"/><view id="c1" viewBox="629 190 585 492"/><view id="c2" viewBox="26 700 585 492"/><view id="c3" viewBox="629 700 585 492"/><view id="c4" viewBox="26 1210 585 492"/><view id="c5" viewBox="629 1210 585 492"/><rect width="1240" height="1754" fill="#FFFDF7"/><rect x="0" y="0" width="1240" height="138" fill="#8E44AD"/><rect x="0" y="132" width="1240" height="8" fill="#F1C40F"/><text x="28" y="62" font-family="DejaVu Sans, Verdana, sans-serif" font-size="46" font-weight="bold" fill="#FFFFFF">SHAZMILA</text><text x="28" y="92" font-family="DejaVu Sans, Verdana, sans-serif" font-size="20" fill="#EBD8F3">Une planche par semaine — du 23 février au 1 mars</text><rect x="978" y="26" width="236" height="54" rx="27" fill="#FFFFFF"/><text x="1096" y="61" text-anchor="middle" font-family="DejaVu Sans, Verdana, sans-serif" font-size="25" font-weight="bold" fill="#8E44AD">Semaine 24/52</text><rect x="978" y="90" width="236" height="34" rx="17" fill="#2980B9"/><text x="1096" y="113" text-anchor="middle" font-family="DejaVu Sans, Verdana, sans-serif" font-size="17" font-weight="bold" fill="#FFFFFF">Éducatif</text><text x="28" y="120" font-family="DejaVu Sans, Verdana, sans-serif" font-size="34" font-weight="bold" fill="#FFF8DC">Propre comme un sou neuf</text><text x="28" y="170" font-family="DejaVu Sans, Verdana, sans-serif" font-size="21" font-style="italic" fill="#6B4226">L'hygiène.</text><clipPath id="clip0"><rect x="26.0" y="190.0" width="585.0" height="492.0" rx="14"/></clipPath><g clip-path="url(#clip0)"><rect x="26.0" y="190.0" width="585.0" height="492.0" fill="#DDF1FF"/><rect x="26.0" y="495.04" width="585.0" height="186.96" fill="#EBDDB7"/><circle cx="551.0" cy="242.0" r="26" fill="#FFE082"/><rect x="60.0" y="376.96000000000004" width="14" height="137.76000000000002" fill="#8D6E3F"/><circle cx="67.0" cy="367.12" r="40" fill="#7DBB6C"/><circle cx="98.0" cy="396.64" r="28" fill="#8FCB7B"/><g transform="translate(178.1,514.0) scale(1.0)"><rect x="-9" y="30" width="18" height="14" fill="#85552B"/><path d="M -34,32 Q 0,24 34,32 L 40,120 L -40,120 Z" fill="#2980B9"/><path d="M -10,34 L 0,46 L 10,34 L 0,30 Z" fill="#FFFFFF"/><path d="M 26,44 Q 60,26 70,-14" stroke="#85552B" stroke-width="13" fill="none" stroke-linecap="round"/><circle cx="72" cy="-22" r="9" fill="#85552B"/><path d="M -26,46 Q -44,70 -40,96" stroke="#85552B" stroke-width="13" fill="none" stroke-linecap="round"/><circle cx="0" cy="0" r="38" fill="#85552B"/><path d="M -39,-6 A 39 39 0 0 1 39,-6 L 39,-14 A 40 40 0 0 0 -39,-14 Z" fill="#1B1B1B"/><path d="M -38,-10 A 38 38 0 0 1 38,-10 L 26,-27 A 32 32 0 0 0 -26,-27 Z" fill="#1B1B1B"/><circle cx="2" cy="-6" r="4.2" fill="#1B1B1B"/><circle cx="24" cy="-6" r="4.2" fill="#1B1B1B"/><path d="M -4,10 Q 8,22 20,10" stroke="#1B1B1B" stroke-width="3.5" fill="none" stroke-linecap="round"/><rect x="-52" y="128" width="104" height="26" rx="13" fill="#FFFFFF" stroke="#2980B9" stroke-width="2"/><text x="0" y="146" text-anchor="middle" font-family="DejaVu Sans, Verdana, sans-serif" font-size="17" font-weight="bold" fill="#2980B9">Vacinanh</text></g><g transform="translate(458.9,514.0) scale(1.0)"><rect x="-9" y="30" width="18" height="14" fill="#8D5524"/><path d="M -30,32 Q 0,24 30,32 L 48,120 L -48,120 Z" fill="#8E44AD"/><path d="M -30,52 L 30,52" stroke="#F1C40F" stroke-width="5"/><path d="M 26,46 Q 44,70 40,96 " stroke="#8D5524" stroke-width="13" fill="none" stroke-linecap="round"/><path d="M -26,46 Q -44,70 -40,96" stroke="#8D5524" stroke-width="13" fill="none" stroke-linecap="round"/><circle cx="0" cy="0" r="38" fill="#8D5524"/><path d="M -40,-6 A 40 40 0 0 1 40,-6 L 40,-16 A 41 41 0 0 0 -40,-16 Z" fill="#1B1B1B"/><path d="M -39,-10 A 39 39 0 0 1 39,-10 L 30,-24 A 34 34 0 0 0 -30,-24 Z" fill="#1B1B1B"/><circle cx="-30" cy="-40" r="16" fill="#1B1B1B"/><circle cx="30" cy="-40" r="16" fill="#1B1B1B"/><circle cx="-30" cy="-27" r="4.5" fill="#F1C40F"/><circle cx="30" cy="-27" r="4.5" fill="#F1C40F"/><circle cx="-24" cy="-6" r="4.2" fill="#1B1B1B"/><circle cx="-2" cy="-6" r="4.2" fill="#1B1B1B"/><path d="M -20,10 Q -8,22 4,10" stroke="#1B1B1B" stroke-width="3.5" fill="none" stroke-linecap="round"/><rect x="-52" y="128" width="104" height="26" rx="13" fill="#FFFFFF" stroke="#8E44AD" stroke-width="2"/><text x="0" y="146" text-anchor="middle" font-family="DejaVu Sans, Verdana, sans-serif" font-size="17" font-weight="bold" fill="#8E44AD">Shazmila</text></g><path d="M 192.1,253.0 L 208.1,470.0 L 224.1,253.0 Z" fill="#FFFFFF" stroke="#26262B" stroke-width="3"/><rect x="44.0" y="204.0" width="549.0" height="51" rx="16" fill="#FFFFFF" stroke="#26262B" stroke-width="3"/><path d="M 195.1,252.0 L 221.1,252.0 Z" stroke="#FFFFFF" stroke-width="5"/><text x="318.5" y="230.0" text-anchor="middle" font-family="DejaVu Sans, Verdana, sans-serif" font-size="21" fill="#1B1B1B">Atchoum ! Troisième rhume du mois…</text></g><rect x="26.0" y="190.0" width="585.0" height="492.0" rx="14" fill="none" stroke="#26262B" stroke-width="4"/><clipPath id="clip1"><rect x="629.0" y="190.0" width="585.0" height="492.0" rx="14"/></clipPath><g clip-path="url(#clip1)"><rect x="629.0" y="190.0" width="585.0" height="492.0" fill="#DDF1FF"/><rect x="629.0" y="495.04" width="585.0" height="186.96" fill="#EBDDB7"/><circle cx="1154.0" cy="242.0" r="26" fill="#FFE082"/><rect x="663.0" y="376.96000000000004" width="14" height="137.76000000000002" fill="#8D6E3F"/><circle cx="670.0" cy="367.12" r="40" fill="#7DBB6C"/><circle cx="701.0" cy="396.64" r="28" fill="#8FCB7B"/><g transform="translate(781.1,514.0) scale(1.0)"><rect x="-9" y="30" width="18" height="14" fill="#85552B"/><path d="M -34,32 Q 0,24 34,32 L 40,120 L -40,120 Z" fill="#2980B9"/><path d="M -10,34 L 0,46 L 10,34 L 0,30 Z" fill="#FFFFFF"/><path d="M 26,46 Q 44,70 40,96 " stroke="#85552B" stroke-width="13" fill="none" stroke-linecap="round"/><path d="M -26,46 Q -44,70 -40,96" stroke="#85552B" stroke-width="13" fill="none" stroke-linecap="round"/><circle cx="0" cy="0" r="38" fill="#85552B"/><path d="M -39,-6 A 39 39 0 0 1 39,-6 L 39,-14 A 40 40 0 0 0 -39,-14 Z" fill="#1B1B1B"/><path d="M -38,-10 A 38 38 0 0 1 38,-10 L 26,-27 A 32 32 0 0 0 -26,-27 Z" fill="#1B1B1B"/><circle cx="2" cy="-6" r="4.2" fill="#1B1B1B"/><circle cx="24" cy="-6" r="4.2" fill="#1B1B1B"/><path d="M -4,10 Q 8,22 20,10" stroke="#1B1B1B" stroke-width="3.5" fill="none" stroke-linecap="round"/></g><g transform="translate(1061.9,514.0) scale(1.0)"><rect x="-9" y="30" width="18" height="14" fill="#8D5524"/><path d="M -30,32 Q 0,24 30,32 L 48,120 L -48,120 Z" fill="#8E44AD"/><path d="M -30,52 L 30,52" stroke="#F1C40F" stroke-width="5"/><path d="M -26,44 Q -60,26 -70,-14" stroke="#8D5524" stroke-width="13" fill="none" stroke-linecap="round"/><circle cx="-72" cy="-22" r="9" fill="#8D5524"/><path d="M 26,46 Q 44,70 40,96" stroke="#8D5524" stroke-width="13" fill="none" stroke-linecap="round"/><circle cx="0" cy="0" r="38" fill="#8D5524"/><path d="M -40,-6 A 40 40 0 0 1 40,-6 L 40,-16 A 41 41 0 0 0 -40,-16 Z" fill="#1B1B1B"/><path d="M -39,-10 A 39 39 0 0 1 39,-10 L 30,-24 A 34 34 0 0 0 -30,-24 Z" fill="#1B1B1B"/><circle cx="-30" cy="-40" r="16" fill="#1B1B1B"/><circle cx="30" cy="-40" r="16" fill="#1B1B1B"/><circle cx="-30" cy="-27" r="4.5" fill="#F1C40F"/><circle cx="30" cy="-27" r="4.5" fill="#F1C40F"/><circle cx="-24" cy="-6" r="4.2" fill="#1B1B1B"/><circle cx="-2" cy="-6" r="4.2" fill="#1B1B1B"/><path d="M -20,10 Q -8,22 4,10" stroke="#1B1B1B" stroke-width="3.5" fill="none" stroke-linecap="round"/></g><path d="M 1015.9000000000001,253.0 L 1031.9,470.0 L 1047.9,253.0 Z" fill="#FFFFFF" stroke="#26262B" stroke-width="3"/><rect x="647.0" y="204.0" width="549.0" height="51" rx="16" fill="#FFFFFF" stroke="#26262B" stroke-width="3"/><path d="M 1018.9000000000001,252.0 L 1044.9,252.0 Z" stroke="#FFFFFF" stroke-width="5"/><text x="921.5" y="230.0" text-anchor="middle" font-family="DejaVu Sans, Verdana, sans-serif" font-size="21" fill="#1B1B1B">Vacinanh, montre-moi tes mains.</text></g><rect x="629.0" y="190.0" width="585.0" height="492.0" rx="14" fill="none" stroke="#26262B" stroke-width="4"/><clipPath id="clip2"><rect x="26.0" y="700.0" width="585.0" height="492.0" rx="14"/></clipPath><g clip-path="url(#clip2)"><rect x="26.0" y="700.0" width="585.0" height="492.0" fill="#DDF1FF"/><rect x="26.0" y="1005.04" width="585.0" height="186.96" fill="#EBDDB7"/><circle cx="551.0" cy="752.0" r="26" fill="#FFE082"/><rect x="60.0" y="886.96" width="14" height="137.76000000000002" fill="#8D6E3F"/><circle cx="67.0" cy="877.12" r="40" fill="#7DBB6C"/><circle cx="98.0" cy="906.64" r="28" fill="#8FCB7B"/><g transform="translate(178.1,1024.0) scale(1.0)"><rect x="-9" y="30" width="18" height="14" fill="#85552B"/><path d="M -34,32 Q 0,24 34,32 L 40,120 L -40,120 Z" fill="#2980B9"/><path d="M -10,34 L 0,46 L 10,34 L 0,30 Z" fill="#FFFFFF"/><path d="M 26,44 Q 60,26 70,-14" stroke="#85552B" stroke-width="13" fill="none" stroke-linecap="round"/><circle cx="72" cy="-22" r="9" fill="#85552B"/><path d="M -26,46 Q -44,70 -40,96" stroke="#85552B" stroke-width="13" fill="none" stroke-linecap="round"/><circle cx="0" cy="0" r="38" fill="#85552B"/><path d="M -39,-6 A 39 39 0 0 1 39,-6 L 39,-14 A 40 40 0 0 0 -39,-14 Z" fill="#1B1B1B"/><path d="M -38,-10 A 38 38 0 0 1 38,-10 L 26,-27 A 32 32 0 0 0 -26,-27 Z" fill="#1B1B1B"/><circle cx="2" cy="-6" r="4.2" fill="#1B1B1B"/><circle cx="24" cy="-6" r="4.2" fill="#1B1B1B"/><path d="M -4,10 Q 8,22 20,10" stroke="#1B1B1B" stroke-width="3.5" fill="none" stroke-linecap="round"/></g><g transform="translate(458.9,1024.0) scale(1.0)"><rect x="-9" y="30" width="18" height="14" fill="#8D5524"/><path d="M -30,32 Q 0,24 30,32 L 48,120 L -48,120 Z" fill="#8E44AD"/><path d="M -30,52 L 30,52" stroke="#F1C40F" stroke-width="5"/><path d="M 26,46 Q 44,70 40,96 " stroke="#8D5524" stroke-width="13" fill="none" stroke-linecap="round"/><path d="M -26,46 Q -44,70 -40,96" stroke="#8D5524" stroke-width="13" fill="none" stroke-linecap="round"/><circle cx="0" cy="0" r="38" fill="#8D5524"/><path d="M -40,-6 A 40 40 0 0 1 40,-6 L 40,-16 A 41 41 0 0 0 -40,-16 Z" fill="#1B1B1B"/><path d="M -39,-10 A 39 39 0 0 1 39,-10 L 30,-24 A 34 34 0 0 0 -30,-24 Z" fill="#1B1B1B"/><circle cx="-30" cy="-40" r="16" fill="#1B1B1B"/><circle cx="30" cy="-40" r="16" fill="#1B1B1B"/><circle cx="-30" cy="-27" r="4.5" fill="#F1C40F"/><circle cx="30" cy="-27" r="4.5" fill="#F1C40F"/><circle cx="-24" cy="-6" r="4.2" fill="#1B1B1B"/><circle cx="-2" cy="-6" r="4.2" fill="#1B1B1B"/><path d="M -20,10 Q -8,22 4,10" stroke="#1B1B1B" stroke-width="3.5" fill="none" stroke-linecap="round"/></g><path d="M 192.1,763.0 L 208.1,980.0 L 224.1,763.0 Z" fill="#FFFFFF" stroke="#26262B" stroke-width="3"/><rect x="44.0" y="714.0" width="549.0" height="51" rx="16" fill="#FFFFFF" stroke="#26262B" stroke-width="3"/><path d="M 195.1,762.0 L 221.1,762.0 Z" stroke="#FFFFFF" stroke-width="5"/><text x="318.5" y="740.0" text-anchor="middle" font-family="DejaVu Sans, Verdana, sans-serif" font-size="21" fill="#1B1B1B">Pourquoi ? Elles vont bien, mes mains !</text></g><rect x="26.0" y="700.0" width="585.0" height="492.0" rx="14" fill="none" stroke="#26262B" stroke-width="4"/><clipPath id="clip3"><rect x="629.0" y="700.0" width="585.0" height="492.0" rx="14"/></clipPath><g clip-path="url(#clip3)"><rect x="629.0" y="700.0" width="585.0" height="492.0" fill="#DDF1FF"/><rect x="629.0" y="1005.04" width="585.0" height="186.96" fill="#EBDDB7"/><circle cx="1154.0" cy="752.0" r="26" fill="#FFE082"/><rect x="663.0" y="886.96" width="14" height="137.76000000000002" fill="#8D6E3F"/><circle cx="670.0" cy="877.12" r="40" fill="#7DBB6C"/><circle cx="701.0" cy="906.64" r="28" fill="#8FCB7B"/><g transform="translate(781.1,1024.0) scale(1.0)"><rect x="-9" y="30" width="18" height="14" fill="#85552B"/><path d="M -34,32 Q 0,24 34,32 L 40,120 L -40,120 Z" fill="#2980B9"/><path d="M -10,34 L 0,46 L 10,34 L 0,30 Z" fill="#FFFFFF"/><path d="M 26,46 Q 44,70 40,96 " stroke="#85552B" stroke-width="13" fill="none" stroke-linecap="round"/><path d="M -26,46 Q -44,70 -40,96" stroke="#85552B" stroke-width="13" fill="none" stroke-linecap="round"/><circle cx="0" cy="0" r="38" fill="#85552B"/><path d="M -39,-6 A 39 39 0 0 1 39,-6 L 39,-14 A 40 40 0 0 0 -39,-14 Z" fill="#1B1B1B"/><path d="M -38,-10 A 38 38 0 0 1 38,-10 L 26,-27 A 32 32 0 0 0 -26,-27 Z" fill="#1B1B1B"/><circle cx="2" cy="-6" r="4.2" fill="#1B1B1B"/><circle cx="24" cy="-6" r="4.2" fill="#1B1B1B"/><path d="M -4,10 Q 8,22 20,10" stroke="#1B1B1B" stroke-width="3.5" fill="none" stroke-linecap="round"/></g><g transform="translate(1061.9,1024.0) scale(1.0)"><rect x="-9" y="30" width="18" height="14" fill="#8D5524"/><path d="M -30,32 Q 0,24 30,32 L 48,120 L -48,120 Z" fill="#8E44AD"/><path d="M -30,52 L 30,52" stroke="#F1C40F" stroke-width="5"/><path d="M -26,44 Q -60,26 -70,-14" stroke="#8D5524" stroke-width="13" fill="none" stroke-linecap="round"/><circle cx="-72" cy="-22" r="9" fill="#8D5524"/><path d="M 26,46 Q 44,70 40,96" stroke="#8D5524" stroke-width="13" fill="none" stroke-linecap="round"/><circle cx="0" cy="0" r="38" fill="#8D5524"/><path d="M -40,-6 A 40 40 0 0 1 40,-6 L 40,-16 A 41 41 0 0 0 -40,-16 Z" fill="#1B1B1B"/><path d="M -39,-10 A 39 39 0 0 1 39,-10 L 30,-24 A 34 34 0 0 0 -30,-24 Z" fill="#1B1B1B"/><circle cx="-30" cy="-40" r="16" fill="#1B1B1B"/><circle cx="30" cy="-40" r="16" fill="#1B1B1B"/><circle cx="-30" cy="-27" r="4.5" fill="#F1C40F"/><circle cx="30" cy="-27" r="4.5" fill="#F1C40F"/><circle cx="-24" cy="-6" r="4.2" fill="#1B1B1B"/><circle cx="-2" cy="-6" r="4.2" fill="#1B1B1B"/><path d="M -20,10 Q -8,22 4,10" stroke="#1B1B1B" stroke-width="3.5" fill="none" stroke-linecap="round"/></g><path d="M 1015.9000000000001,821.0 L 1031.9,980.0 L 1047.9,821.0 Z" fill="#FFFFFF" stroke="#26262B" stroke-width="3"/><rect x="647.0" y="714.0" width="549.0" height="109" rx="16" fill="#FFFFFF" stroke="#26262B" stroke-width="3"/><path d="M 1018.9000000000001,820.0 L 1044.9,820.0 Z" stroke="#FFFFFF" stroke-width="5"/><text x="921.5" y="740.0" text-anchor="middle" font-family="DejaVu Sans, Verdana, sans-serif" font-size="21" fill="#1B1B1B">Les microbes sont invisibles, mais ils</text><text x="921.5" y="769.0" text-anchor="middle" font-family="DejaVu Sans, Verdana, sans-serif" font-size="21" fill="#1B1B1B">voyagent en première classe sur les mains</text><text x="921.5" y="798.0" text-anchor="middle" font-family="DejaVu Sans, Verdana, sans-serif" font-size="21" fill="#1B1B1B">sales !</text></g><rect x="629.0" y="700.0" width="585.0" height="492.0" rx="14" fill="none" stroke="#26262B" stroke-width="4"/><clipPath id="clip4"><rect x="26.0" y="1210.0" width="585.0" height="492.0" rx="14"/></clipPath><g clip-path="url(#clip4)"><rect x="26.0" y="1210.0" width="585.0" height="492.0" fill="#DDF1FF"/><rect x="26.0" y="1515.04" width="585.0" height="186.96" fill="#EBDDB7"/><circle cx="551.0" cy="1262.0" r="26" fill="#FFE082"/><rect x="60.0" y="1396.96" width="14" height="137.76000000000002" fill="#8D6E3F"/><circle cx="67.0" cy="1387.12" r="40" fill="#7DBB6C"/><circle cx="98.0" cy="1416.6399999999999" r="28" fill="#8FCB7B"/><g transform="translate(178.1,1534.0) scale(1.0)"><rect x="-9" y="30" width="18" height="14" fill="#85552B"/><path d="M -34,32 Q 0,24 34,32 L 40,120 L -40,120 Z" fill="#2980B9"/><path d="M -10,34 L 0,46 L 10,34 L 0,30 Z" fill="#FFFFFF"/><path d="M 26,44 Q 60,26 70,-14" stroke="#85552B" stroke-width="13" fill="none" stroke-linecap="round"/><circle cx="72" cy="-22" r="9" fill="#85552B"/><path d="M -26,46 Q -44,70 -40,96" stroke="#85552B" stroke-width="13" fill="none" stroke-linecap="round"/><circle cx="0" cy="0" r="38" fill="#85552B"/><path d="M -39,-6 A 39 39 0 0 1 39,-6 L 39,-14 A 40 40 0 0 0 -39,-14 Z" fill="#1B1B1B"/><path d="M -38,-10 A 38 38 0 0 1 38,-10 L 26,-27 A 32 32 0 0 0 -26,-27 Z" fill="#1B1B1B"/><circle cx="2" cy="-6" r="4.2" fill="#1B1B1B"/><circle cx="24" cy="-6" r="4.2" fill="#1B1B1B"/><path d="M -4,10 Q 8,22 20,10" stroke="#1B1B1B" stroke-width="3.5" fill="none" stroke-linecap="round"/></g><g transform="translate(458.9,1534.0) scale(1.0)"><rect x="-9" y="30" width="18" height="14" fill="#8D5524"/><path d="M -30,32 Q 0,24 30,32 L 48,120 L -48,120 Z" fill="#8E44AD"/><path d="M -30,52 L 30,52" stroke="#F1C40F" stroke-width="5"/><path d="M 26,46 Q 44,70 40,96 " stroke="#8D5524" stroke-width="13" fill="none" stroke-linecap="round"/><path d="M -26,46 Q -44,70 -40,96" stroke="#8D5524" stroke-width="13" fill="none" stroke-linecap="round"/><circle cx="0" cy="0" r="38" fill="#8D5524"/><path d="M -40,-6 A 40 40 0 0 1 40,-6 L 40,-16 A 41 41 0 0 0 -40,-16 Z" fill="#1B1B1B"/><path d="M -39,-10 A 39 39 0 0 1 39,-10 L 30,-24 A 34 34 0 0 0 -30,-24 Z" fill="#1B1B1B"/><circle cx="-30" cy="-40" r="16" fill="#1B1B1B"/><circle cx="30" cy="-40" r="16" fill="#1B1B1B"/><circle cx="-30" cy="-27" r="4.5" fill="#F1C40F"/><circle cx="30" cy="-27" r="4.5" fill="#F1C40F"/><circle cx="-24" cy="-6" r="4.2" fill="#1B1B1B"/><circle cx="-2" cy="-6" r="4.2" fill="#1B1B1B"/><path d="M -20,10 Q -8,22 4,10" stroke="#1B1B1B" stroke-width="3.5" fill="none" stroke-linecap="round"/></g><path d="M 192.1,1273.0 L 208.1,1490.0 L 224.1,1273.0 Z" fill="#FFFFFF" stroke="#26262B" stroke-width="3"/><rect x="44.0" y="1224.0" width="549.0" height="51" rx="16" fill="#FFFFFF" stroke="#26262B" stroke-width="3"/><path d="M 195.1,1272.0 L 221.1,1272.0 Z" stroke="#FFFFFF" stroke-width="5"/><text x="318.5" y="1250.0" text-anchor="middle" font-family="DejaVu Sans, Verdana, sans-serif" font-size="21" fill="#1B1B1B">Alors l'eau et le savon…</text></g><rect x="26.0" y="1210.0" width="585.0" height="492.0" rx="14" fill="none" stroke="#26262B" stroke-width="4"/><clipPath id="clip5"><rect x="629.0" y="1210.0" width="585.0" height="492.0" rx="14"/></clipPath><g clip-path="url(#clip5)"><rect x="629.0" y="1210.0" width="585.0" height="492.0" fill="#DDF1FF"/><rect x="629.0" y="1515.04" width="585.0" height="186.96" fill="#EBDDB7"/><circle cx="1154.0" cy="1262.0" r="26" fill="#FFE082"/><rect x="663.0" y="1396.96" width="14" height="137.76000000000002" fill="#8D6E3F"/><circle cx="670.0" cy="1387.12" r="40" fill="#7DBB6C"/><circle cx="701.0" cy="1416.6399999999999" r="28" fill="#8FCB7B"/><g transform="translate(781.1,1534.0) scale(1.0)"><rect x="-9" y="30" width="18" height="14" fill="#85552B"/><path d="M -34,32 Q 0,24 34,32 L 40,120 L -40,120 Z" fill="#2980B9"/><path d="M -10,34 L 0,46 L 10,34 L 0,30 Z" fill="#FFFFFF"/><path d="M 26,46 Q 44,70 40,96 " stroke="#85552B" stroke-width="13" fill="none" stroke-linecap="round"/><path d="M -26,46 Q -44,70 -40,96" stroke="#85552B" stroke-width="13" fill="none" stroke-linecap="round"/><circle cx="0" cy="0" r="38" fill="#85552B"/><path d="M -39,-6 A 39 39 0 0 1 39,-6 L 39,-14 A 40 40 0 0 0 -39,-14 Z" fill="#1B1B1B"/><path d="M -38,-10 A 38 38 0 0 1 38,-10 L 26,-27 A 32 32 0 0 0 -26,-27 Z" fill="#1B1B1B"/><circle cx="2" cy="-6" r="4.2" fill="#1B1B1B"/><circle cx="24" cy="-6" r="4.2" fill="#1B1B1B"/><path d="M -4,10 Q 8,22 20,10" stroke="#1B1B1B" stroke-width="3.5" fill="none" stroke-linecap="round"/></g><g transform="translate(1061.9,1534.0) scale(1.0)"><rect x="-9" y="30" width="18" height="14" fill="#8D5524"/><path d="M -30,32 Q 0,24 30,32 L 48,120 L -48,120 Z" fill="#8E44AD"/><path d="M -30,52 L 30,52" stroke="#F1C40F" stroke-width="5"/><path d="M -26,44 Q -60,26 -70,-14" stroke="#8D5524" stroke-width="13" fill="none" stroke-linecap="round"/><circle cx="-72" cy="-22" r="9" fill="#8D5524"/><path d="M 26,46 Q 44,70 40,96" stroke="#8D5524" stroke-width="13" fill="none" stroke-linecap="round"/><circle cx="0" cy="0" r="38" fill="#8D5524"/><path d="M -40,-6 A 40 40 0 0 1 40,-6 L 40,-16 A 41 41 0 0 0 -40,-16 Z" fill="#1B1B1B"/><path d="M -39,-10 A 39 39 0 0 1 39,-10 L 30,-24 A 34 34 0 0 0 -30,-24 Z" fill="#1B1B1B"/><circle cx="-30" cy="-40" r="16" fill="#1B1B1B"/><circle cx="30" cy="-40" r="16" fill="#1B1B1B"/><circle cx="-30" cy="-27" r="4.5" fill="#F1C40F"/><circle cx="30" cy="-27" r="4.5" fill="#F1C40F"/><circle cx="-24" cy="-6" r="4.2" fill="#1B1B1B"/><circle cx="-2" cy="-6" r="4.2" fill="#1B1B1B"/><path d="M -20,10 Q -8,22 4,10" stroke="#1B1B1B" stroke-width="3.5" fill="none" stroke-linecap="round"/></g><path d="M 1015.9000000000001,1302.0 L 1031.9,1490.0 L 1047.9,1302.0 Z" fill="#FFFFFF" stroke="#26262B" stroke-width="3"/><rect x="647.0" y="1224.0" width="549.0" height="80" rx="16" fill="#FFFFFF" stroke="#26262B" stroke-width="3"/><path d="M 1018.9000000000001,1301.0 L 1044.9,1301.0 Z" stroke="#FFFFFF" stroke-width="5"/><text x="921.5" y="1250.0" text-anchor="middle" font-family="DejaVu Sans, Verdana, sans-serif" font-size="21" fill="#1B1B1B">… sont tes gardes du corps ! Utilise-les avant</text><text x="921.5" y="1279.0" text-anchor="middle" font-family="DejaVu Sans, Verdana, sans-serif" font-size="21" fill="#1B1B1B">de manger et après les toilettes.</text></g><rect x="629.0" y="1210.0" width="585.0" height="492.0" rx="14" fill="none" stroke="#26262B" stroke-width="4"/><text x="620.0" y="1738" text-anchor="middle" font-family="DejaVu Sans, Verdana, sans-serif" font-size="17" fill="#8E44AD">Shazmila et ses amis — Planche 24/52 • Éducatif</text></svg>